<?xml version="1.0" encoding="utf-8"?>
<!-- Generator: Adobe Illustrator 25.4.1, SVG Export Plug-In . SVG Version: 6.00 Build 0)  -->
<svg version="1.0" id="Layer_1" xmlns="http://www.w3.org/2000/svg" xmlns:xlink="http://www.w3.org/1999/xlink" x="0px" y="0px"
	 viewBox="0 0 238.632 76.207" enable-background="new 0 0 238.632 76.207" xml:space="preserve">
<path fill="#FFFFFF" d="M58.432,26.307c-0.3-2.3-1-4.5-2-6.5c-0.7-1.4-1.6-2.7-2.8-3.7c-1.5-1.3-3.4-2-5.4-2c-0.9,0-1.8,0.1-2.7,0.4
	l2.6-5.6l0.3-0.7l-0.6-0.3l-5.1-3.6l-0.2-0.2h-4.3c-0.9-0.2-1.8-0.6-2.5-1.2c-2.4-1.9-5.3-2.9-8.4-2.9c-3.1-0.1-6.1,0.9-8.5,3
	l-8.8,8.6l-0.2,0.2l-5.1,5c-0.9,0.9-1.6,1.9-2.1,3.1c-1,2.1-1.7,4.2-2,6.5c-1,5.3-0.8,10.7,0.5,15.9c1.5,5.5,4.1,10.6,7.6,15.1
	c4.9,6.2,11.1,11.4,18.1,15.4l2.2,1.3l0.5,0.3l0.5-0.3l2.2-1.3c7-4,13.1-9.3,18.2-15.5c3.5-4.5,6.1-9.6,7.6-15.1
	C59.132,37.007,59.332,31.607,58.432,26.307z"/>
<path d="M25.232,20.507h-7.9l-0.7,11.9c0.4,0.1,0.9,0.2,1.3,0.4L25.232,20.507z"/>
<path d="M19.132,47.507l-0.1,1l0.4,0.2c0.8,0.3,1.6,0.5,2.5,0.4c0.9,0,1.8-0.1,2.6-0.5v-1c-0.8,0.4-1.7,0.6-2.6,0.6
	c-0.8,0-1.7-0.2-2.5-0.5L19.132,47.507z"/>
<path d="M19.432,51.207l-0.3-0.2h-0.1v1l0.4,0.2c0.8,0.3,1.6,0.5,2.5,0.4c0.7,0,1.4-0.1,2-0.3v-0.9c-0.6,0.2-1.3,0.3-2,0.3
	C21.032,51.807,20.132,51.607,19.432,51.207z"/>
<path d="M19.432,54.707l-0.3-0.2h-0.1v1l0.4,0.2c0.8,0.3,1.6,0.4,2.4,0.4c0.4,0,0.8,0,1.2-0.1v-0.9c-0.4,0.1-0.8,0.1-1.2,0.1
	C21.032,55.307,20.132,55.107,19.432,54.707z"/>
<path d="M28.332,4.107c0.7,0.1,1.3,0.4,1.9,0.7c0.6,0.3,1.2,0.7,1.7,1.1c0.8,0.7,1.7,1.3,2.6,1.8v-1.5c-0.7-0.4-1.3-0.8-2-1.2
	c-0.6-0.4-1.3-0.7-1.9-1c-0.7-0.3-1.4-0.5-2.1-0.6c-0.7-0.1-1.4-0.1-2.2,0h-0.1v0.6h0.1C26.932,3.907,27.632,4.007,28.332,4.107z"/>
<path d="M57.532,26.507c-0.3-2.2-1-4.3-1.9-6.3c-0.6-1.3-1.5-2.5-2.6-3.4c-1.3-1.1-3.1-1.8-4.8-1.8c-2.3,0-4.5,0.9-6.1,2.5l-2.6-2.8
	l0.4-0.9h3.6l-0.4,0.9h1.4l2.8-6.1l-5.1-3.6h-4c-1.1-0.2-2.2-0.7-3-1.4c-2.2-1.8-5-2.8-7.9-2.8c-2.9-0.2-5.7,0.8-7.9,2.7l-9.1,8.9
	l-5.1,5c-0.8,0.8-1.5,1.8-2,2.8c-0.9,2-1.6,4.1-1.9,6.3c-1,5.1-0.8,10.4,0.5,15.5c1.5,5.4,4,10.4,7.5,14.8c5,6.2,11.1,11.4,18,15.3
	l2.2,1.3l2.2-1.3c6.9-4,13-9.2,18-15.3c3.4-4.4,5.9-9.4,7.4-14.8C58.332,36.907,58.532,31.607,57.532,26.507z M20.232,4.407
	c0.6-0.6,2.6-2.4,7-2.4c2.6,0,5.2,0.9,7.2,2.6c1.3,0.9,2.4,1.6,3.8,1.6h3.6l4,2.8l-1.6,3.5h-3.6c-0.5,0-1-0.2-1.4-0.6
	c-0.5-0.5-0.8-1.1-0.9-1.8h-0.6c0,0.4,0,0.9,0.2,1.3c0.1,0.4,0.4,0.8,0.7,1.2c0.1,0.2,0.3,0.3,0.5,0.4l-0.9,1.9l2.4,2.6h-1.8
	l-3.2-2.7h-0.7l2.3,2.7h-4.7l-2.7-2.7h-1.6c0.3-0.7,0.5-1.5,0.5-2.3c0-0.1,0-0.3,0-0.4v-0.4v-0.2v-0.2l-0.1-0.4
	c-0.1-0.6-0.3-1.1-0.6-1.6c-0.3-0.5-0.6-1-1-1.4l-0.1-0.1l-0.2-0.1l-0.3-0.3c-0.2-0.2-0.5-0.3-0.7-0.5c-1-0.6-1.9-0.9-2.8-1
	c-0.2,0-0.5,0-0.8,0v0.6c1,0,2,0.3,2.8,0.9c0.2,0.1,0.4,0.3,0.6,0.4l0.3,0.3l0.1,0.1l0.1,0.1c0.3,0.4,0.6,0.8,0.8,1.2
	c0.2,0.4,0.4,0.9,0.5,1.4v0.4v0.2v0.6c0,0.1,0,0.2,0,0.4c-0.1,1-0.4,1.9-1,2.6l-0.7,1h3.4l1.5,1.5h-14v-5.2h-4.5L20.232,4.407z
	 M13.932,22.507c-0.5,1.9-2.1,3.3-4,3.5h-0.5c-2.4,0-4.5-1.9-4.7-4.3c0-0.1,0-0.2,0-0.3c0-1.3,0.5-2.5,1.5-3.4l4.5-4.4h4.5v4.4
	L13.932,22.507z M55.832,41.707c-0.9,3.1-2.1,6.2-3.7,9l-0.3,0.4l-0.2,0.3l-0.3,0.4l-0.2,0.5l-0.2,0.4l-0.5,0.7l-0.2,0.3l-0.4,0.5
	l-0.2,0.3l-0.4,0.5l-0.2,0.2l-0.6,0.8l-0.5,0.7c-2.1,2.6-4.5,5.1-7.1,7.3c-2.1,1.8-4.2,3.4-6.5,4.9c-1.1,0.7-2.3,1.5-3.5,2.2
	l-1.5,0.9l-1.5-0.9c-6.7-3.9-12.7-9-17.6-15l-0.4-0.5l-0.2-0.3l-0.4-0.6l-0.2-0.4l-0.5-0.7l-0.1-0.1l-0.5-0.8
	c-2.2-3.4-3.9-7.1-4.9-11c-1.2-4.9-1.4-10-0.5-15c0.2-1.5,0.6-3,1.1-4.4c0.1,0.9,0.5,1.8,1,2.5c-0.2,0.7-0.3,1.4-0.5,2.2
	c-0.2,1.2-0.4,2.5-0.4,3.7l8.2,3.8c0.1-0.2,0.3-0.4,0.5-0.6c0.1-0.1,0.3-0.3,0.4-0.4l-5-6.5c0.9,0.2,1.8,0.3,2.7,0.1l3.4,5.6
	c0.4-0.2,0.8-0.3,1.3-0.4l-0.5-8.4c0.2-0.4,0.3-0.7,0.4-1.1l1.2-4v-0.1h26.4l0.2-0.2c1.4-1.5,3.3-2.3,5.3-2.2c1.5,0,2.9,0.5,4,1.5
	c1,0.8,1.7,1.9,2.3,3c0.9,1.9,1.5,3.9,1.8,5.9C57.232,31.707,57.032,36.807,55.832,41.707z"/>
<path d="M42.032,9.407c0.387,0,0.7-0.313,0.7-0.7c0-0.387-0.313-0.7-0.7-0.7s-0.7,0.313-0.7,0.7
	C41.332,9.093,41.646,9.407,42.032,9.407z"/>
<path d="M38.232,9.107c0.1-0.5,0.5-0.9,1-1v-0.7h-1.6v1.7H38.232L38.232,9.107z"/>
<path d="M54.632,27.007c-0.7-4.1-2.4-9-6.4-9c-1.9-0.1-3.7,0.9-4.6,2.5h-14.6l-10,13c0.1,0.1,0.2,0.2,0.4,0.3
	c0.2,0.2,0.4,0.5,0.5,0.7l7.2-3.3l-0.6,2.6l-6,1.9c0.1,0.4,0.2,0.9,0.2,1.4c-0.2,0-0.4-0.1-0.6-0.2c-0.2-0.1-0.4-0.2-0.6-0.2
	l-0.3-0.1l-0.6-0.3c-0.5-0.2-1-0.4-1.5-0.4h-0.3h-0.4h-1h-0.4h-0.3c-0.5,0.1-1,0.2-1.5,0.4l-0.6,0.3l-0.3,0.1
	c-0.2,0.1-0.4,0.2-0.6,0.2c-0.2,0.1-0.4,0.1-0.6,0.2c0-0.5,0.1-1,0.2-1.4l-7.7-2.5c0,0.9,0,1.8,0.1,2.7c0,0.1,0,0.2,0,0.3
	c0,0.1,0,0.4,0,0.6c0,0.1,0,0.3,0,0.4h0.8l0.5,0.1c0.5,0.1,1.1,0.3,1.5,0.6c1,0.5,2.1,0.8,3.2,0.8s2.2-0.2,3.2-0.8
	c0.2-0.1,0.5-0.2,0.7-0.3c0.5-0.2,1.1-0.3,1.7-0.3h0.7c0.5,0,1.1,0.1,1.6,0.3c0.3,0.1,0.5,0.2,0.8,0.3c1,0.5,2.1,0.8,3.2,0.8
	c1.1,0,2.2-0.2,3.2-0.8l0.5-0.2l-0.3,1.2l1.1-0.2l-0.3,1.3c-0.6,0.1-1.1,0.3-1.6,0.6c-0.9,0.5-1.8,0.7-2.8,0.7s-1.9-0.2-2.8-0.7
	c-1-0.5-2.1-0.8-3.2-0.8s-2.2,0.2-3.2,0.8c-0.9,0.5-1.8,0.7-2.8,0.7s-1.9-0.2-2.8-0.7c-0.5-0.3-1-0.5-1.6-0.6h0.4h-0.1h-0.2h-0.1
	c-0.3,0-0.5-0.1-0.8-0.1c0.1,0.3,0.1,0.6,0.2,0.9h0.5h0.2h0.1l0.3,0.1l0.3,0.1c0.3,0.1,0.7,0.3,1,0.4c1,0.5,2.1,0.8,3.2,0.8
	s2.2-0.2,3.2-0.8c0.9-0.5,1.8-0.7,2.8-0.7s1.9,0.2,2.8,0.7c1,0.5,2.1,0.8,3.2,0.8s2.2-0.2,3.2-0.8c0.3-0.2,0.7-0.3,1-0.4l-0.6,2.6
	c-0.3,0.1-0.6,0.3-0.9,0.4c-0.8,0.5-1.8,0.7-2.7,0.7s-1.9-0.2-2.7-0.7c-1-0.5-2.1-0.8-3.2-0.8c-1.1,0-2.2,0.2-3.2,0.8
	c-1.1,0.3-2.1,0.5-3,0.5c-0.9,0-1.9-0.2-2.7-0.7l-0.6-0.3l0,0c-0.4-0.2-0.9-0.3-1.3-0.4c0.2,0.5,0.3,0.9,0.5,1.4
	c0.8,2,1.7,3.9,2.8,5.8l0.1,0.3l0.2,0.4l0.2,0.3l0.2,0.4l0.2,0.3l0.2,0.4l0.2,0.3l0.2,0.3l0.3,0.4l0.2,0.3l0.3,0.4l0.2,0.2l0.5,0.7
	c4.8,5.8,10.6,10.8,17.2,14.5l0.6,0.4l0.6-0.4c6.6-3.8,12.4-8.7,17.1-14.6c0.3-0.3,0.5-0.7,0.8-1l0.1-0.1c0.2-0.3,0.5-0.7,0.7-1
	l0.1-0.1c0.5-0.7,1-1.5,1.4-2.2c1.2-2,2.1-4,2.9-6.1c0.2-0.4,0.3-0.8,0.4-1.2c-0.5,0.1-0.9,0.2-1.3,0.4h-0.1l-0.6,0.3
	c-1.7,0.9-3.7,0.9-5.4,0c-2-1-4.4-1-6.5,0c-1.7,0.9-3.7,0.9-5.4,0c-0.3-0.1-0.6-0.3-0.9-0.4l-1-4.8l1.2,0.2l-0.7-3.2l3.8-3.7
	l2.5,1.8l3.9-3.9l3.8,4l2.5-1.8l4.5,4.5l1.1,1.1c0-0.4,0.1-0.8,0.1-1.2c0-0.1,0-0.1,0-0.2s0-0.2,0-0.2
	C55.232,33.007,55.132,30.007,54.632,27.007z M47.332,27.607l0.1-0.2h1.4l0.4-1.4h0.2l0.4,1.3h1.4l0.1,0.2l-1.2,0.8l0.4,1.4
	l-0.2,0.1l-1.2-0.8l-1.2,0.8l-0.2-0.1l0.4-1.4L47.332,27.607z M44.332,27.407l-0.2,0.1l-1.2-0.8l-1.1,0.8l-0.2-0.1l0.4-1.4l-1.2-0.8
	l0.1-0.2h1.4l0.5-1.4h0.2l0.4,1.4h1.4l0.1,0.2l-1.1,0.9L44.332,27.407z M37.832,29.807l-0.2,0.1l-1.2-0.8l-1.2,0.8l-0.2-0.1l0.4-1.4
	l-1.2-0.8l0.1-0.2h1.4l0.4-1.4h0.2l0.4,1.3h1.4l0.1,0.2l-1.2,0.8L37.832,29.807z M32.632,45.807l-1.4-0.3l1.9,9.2l-3.7-1.5l-3.7,1.5
	l1.9-9.2l-1.4,0.3l1.8-8.8l-1.1,0.2l2.3-12.2h0.2l2.4,12.2l-1.1-0.2L32.632,45.807z M30.132,55.907l0.3,8.7h-2.1l0.3-8.7v-1.4
	l0.7-0.3l0.7,0.3L30.132,55.907z M27.632,58.407v0.6c-0.7,0-1.4,0.2-2,0.5c-1.1,0.6-2.4,0.9-3.7,0.9c-1.2,0-2.5-0.2-3.5-0.8
	l-0.1-0.1l-0.5-0.2h-0.1c-0.2-0.1-0.3-0.1-0.5-0.2l0.5-0.4l0.1-0.1c0.3,0.1,0.5,0.2,0.8,0.3l0.3,0.2c0.9,0.4,1.9,0.6,2.8,0.6
	c1.1,0,2.2-0.2,3.2-0.8c0.8-0.4,1.7-0.7,2.6-0.7L27.632,58.407z M39.832,59.007l0.3-0.2c0.2-0.1,0.5-0.2,0.8-0.3l0.7,0.6
	c-0.2,0.1-0.4,0.1-0.5,0.2l-0.3,0.2l-0.1,0.1c-1.1,0.6-2.3,0.8-3.5,0.8c-1.3,0-2.6-0.3-3.7-0.9c-0.6-0.3-1.3-0.5-2-0.5v-0.6v-0.2
	c0.9,0,1.8,0.2,2.6,0.7c1,0.5,2.1,0.8,3.2,0.8C38.032,59.607,38.932,59.407,39.832,59.007z M25.132,44.907l-0.5,2.4l1.5-0.3
	l-2.1,9.8l3.9-1.9l-0.1,1.3l-0.1,1.1c-1.1,0-2.1,0.2-3,0.8c-0.9,0.4-1.9,0.6-2.9,0.6c-0.9,0-1.8-0.2-2.6-0.6l-0.2-0.1
	c-0.3-0.1-0.6-0.3-0.9-0.4v-12l-0.8,0.7v11.6l-0.8,0.7v-12.8l1.5-1.2h0.1l0.3,0.1l0.1,0.1c0.2,0.1,0.5,0.2,0.8,0.3
	c0.8,0.3,1.6,0.4,2.5,0.4C23.032,45.707,24.132,45.407,25.132,44.907z M33.732,44.907c1,0.5,2.1,0.8,3.2,0.8c0.8,0,1.7-0.1,2.5-0.4
	c0.3-0.1,0.5-0.2,0.8-0.3l0.4-0.2h0.1l1.5,1.2v12.7l-0.8-0.7v-11.7l-0.9-0.7v12.1c-0.3,0.1-0.6,0.2-0.9,0.4l-0.2,0.1
	c-0.8,0.4-1.7,0.6-2.6,0.6c-1,0-1.9-0.2-2.8-0.7s-2-0.8-3-0.8l-0.1-1.1l-0.1-1.3l3.9,1.9l-0.3-1.3l-1.8-8.5l1.5,0.3L33.732,44.907z"
	/>
<path d="M39.432,48.607l0.4-0.2v-1h-0.1l-0.3,0.2c-0.8,0.4-1.6,0.5-2.5,0.5c-0.9,0-1.8-0.2-2.6-0.6v1
	C35.932,49.107,37.732,49.207,39.432,48.607z"/>
<path d="M39.432,51.207c-0.8,0.4-1.6,0.5-2.5,0.5c-0.7,0-1.4-0.1-2-0.3v0.9c0.6,0.2,1.3,0.3,2,0.3c0.8,0,1.7-0.1,2.5-0.4l0.4-0.2v-1
	h-0.1L39.432,51.207z"/>
<path d="M39.432,54.707c-0.8,0.4-1.6,0.5-2.5,0.5c-0.4,0-0.8,0-1.2-0.1v0.9c0.4,0.1,0.8,0.1,1.2,0.1c0.8,0,1.7-0.1,2.5-0.4l0.4-0.2
	v-1h-0.1L39.432,54.707z"/>
<path d="M8.232,22.507l0.5,0.4l5.1-7v-0.9h-0.8L8.232,22.507z"/>
<path d="M37.132,40.107v-3h-1.2v0.8h0.4v2.2H37.132z"/>
<path d="M39.632,39.307c0.2,0.6,0.8,1,1.4,0.9c0.4-0.1,0.8-0.4,0.9-0.9c0-0.3-0.2-0.6-0.5-0.8c0.2-0.1,0.4-0.4,0.4-0.7
	c-0.1-0.6-0.6-1-1.2-0.9c-0.4,0.1-0.8,0.4-0.9,0.9c0,0.3,0.2,0.5,0.4,0.7C39.832,38.707,39.532,39.007,39.632,39.307z
	 M40.732,38.207c-0.2,0-0.3-0.1-0.3-0.3c0-0.2,0.1-0.3,0.3-0.3c0.2,0,0.3,0.1,0.3,0.3C41.032,38.007,40.932,38.207,40.732,38.207z
	 M40.732,39.507c-0.2,0-0.3-0.1-0.3-0.3c0-0.2,0.1-0.3,0.3-0.3c0.2,0,0.3,0.1,0.3,0.3C41.032,39.407,40.932,39.507,40.732,39.507
	C40.732,39.607,40.732,39.607,40.732,39.507z"/>
<path d="M45.132,37.107l-0.6,0.8c-0.3,0.3-0.5,0.8-0.5,1.2c0,0.3,0.2,0.6,0.4,0.8c0.3,0.2,0.6,0.3,0.9,0.3c0.6,0.1,1.2-0.4,1.3-1.1
	v-0.1c0-0.6-0.4-1-0.9-1.1c0,0,0,0-0.1,0s-0.2,0-0.3,0l0.8-1L45.132,37.107z M45.232,38.707c0.2,0,0.4,0.3,0.4,0.5
	c0,0.2-0.2,0.3-0.4,0.4c-0.2,0-0.5-0.1-0.5-0.4c0-0.2,0.1-0.5,0.4-0.5H45.232z"/>
<path d="M48.532,39.307c0.1,0.6,0.8,1,1.4,0.9c0.4-0.1,0.8-0.4,0.9-0.9c0-0.3-0.2-0.6-0.5-0.8c0.2-0.1,0.4-0.4,0.4-0.7
	c-0.1-0.6-0.6-1-1.2-0.9c-0.4,0.1-0.8,0.4-0.9,0.9c0,0.3,0.2,0.5,0.4,0.7C48.732,38.607,48.532,39.007,48.532,39.307z
	 M49.632,38.207c-0.2,0-0.3-0.1-0.3-0.3c0-0.2,0.1-0.3,0.3-0.3s0.3,0.1,0.3,0.3C49.932,38.007,49.832,38.207,49.632,38.207
	C49.732,38.207,49.732,38.207,49.632,38.207z M49.632,39.507c-0.2,0-0.3-0.1-0.3-0.3c0-0.2,0.1-0.3,0.3-0.3s0.3,0.1,0.3,0.3
	C50.032,39.407,49.932,39.507,49.632,39.507C49.732,39.607,49.732,39.607,49.632,39.507z"/>
<path fill="#D73F09" d="M65.132,28.307c0-6.9,3.7-11.1,10.3-11.1s10.2,4.2,10.2,11.1s-3.7,11.1-10.3,11.1
	S65.132,35.107,65.132,28.307z M80.232,28.307c0-6.8-1.5-9.4-4.8-9.4c-3.3,0-4.8,2.6-4.8,9.4s1.5,9.3,4.8,9.3
	C78.732,37.607,80.232,35.007,80.232,28.307z"/>
<path fill="#D73F09" d="M96.032,37.907l-0.5,1.1h-8.9v-1l1.5-0.7v-10l-1.5-2.4v-0.4l5.5-1.8h0.7l-0.1,3.7h0.1
	c0.7-1.9,2.2-3.7,4.6-3.7c1.5-0.2,2.9,0.9,3.1,2.5c0,0.1,0,0.3,0,0.4c0.1,1.4-0.9,2.6-2.3,2.7c-0.1,0-0.1,0-0.2,0
	c-1.3,0.1-2.4-0.9-2.5-2.2c0-0.1,0-0.2,0-0.3c-1.1,0.5-2,1.3-2.7,2.3v9.1L96.032,37.907z"/>
<path fill="#D73F09" d="M109.532,36.307c1.4,0,2.9-0.5,3.9-1.4l0.7,0.8c-1.2,2.6-3.4,3.7-6.5,3.7c-4.2,0-7.4-2.7-7.4-8.1
	s3.7-8.5,8.2-8.5c3.6,0,6.1,2.1,6.1,5.9c0,0.7-0.1,1.4-0.2,2.1h-9.5C104.932,34.007,106.432,36.307,109.532,36.307z M104.932,29.007
	h5.2c0.1-0.4,0.1-0.9,0.1-1.4c0-1.7-0.5-3.2-2.2-3.2C106.332,24.407,105.232,25.907,104.932,29.007z"/>
<path fill="#D73F09" d="M126.032,35.807c3.5,0,5.7,1.7,5.7,5.2c0,4.5-4.4,6.1-9.2,6.1c-4.5,0-7.7-1-7.7-3.8c0-2.1,1.6-3,4.1-3.4
	v-0.1c-2.1-0.2-3.3-1.4-3.3-3.3c0-1.9,1.4-3,3.4-3.4c-2.1-0.5-3.5-2.4-3.4-4.6c0-3.2,2.4-5.7,7-5.7c2,0,4,0.4,5.8,1.2
	c-0.2-0.3-0.2-0.6-0.2-0.9c0-1,0.8-1.9,1.8-1.9c0.1,0,0.1,0,0.2,0c1.1,0,2,0.8,2,1.9c0,0.1,0,0.1,0,0.2c0.1,1.1-0.7,2.1-1.8,2.2
	c-0.1,0-0.3,0-0.4,0c-1-0.1-2-0.3-2.9-0.8v0.4c1.4,0.6,2.2,2,2.2,3.5c0,3.5-3.5,5.1-6.7,5.1c-0.8,0-1.5-0.1-2.2-0.3
	c-0.8,0.3-1.3,0.7-1.3,1.5c0,0.8,0.4,1.1,1.3,1.1L126.032,35.807z M118.732,42.607c0,1.9,1.4,2.8,3.9,2.8c2.9,0,5.1-0.8,5.1-3.1
	c0-1.4-0.7-2.2-2.9-2.2h-4.6C119.332,40.607,118.732,41.607,118.732,42.607z M122.532,24.307c-1.9,0-2.2,1.4-2.2,3.8
	s0.3,3.8,2.2,3.8c1.9,0,2.2-1.4,2.2-3.8S124.432,24.307,122.532,24.307z"/>
<path fill="#D73F09" d="M139.032,39.407c-4.9,0-8.2-2.8-8.2-8.3s3.2-8.3,8.2-8.3s8.2,2.8,8.2,8.3S144.032,39.407,139.032,39.407z
	 M139.032,37.707c2.4,0,3.1-2.4,3.1-6.7s-0.7-6.6-3.1-6.6c-2.4,0-3.1,2.4-3.1,6.6S136.632,37.707,139.032,37.707z"/>
<path fill="#D73F09" d="M166.432,37.907l-0.5,1.1h-8v-1l1.5-0.7v-8c0-2.4-1.2-3.2-2.6-3.2c-1.1,0-2.1,0.5-2.9,1.2v9.9l2.2,0.7
	l-0.5,1.1h-8v-1l1.5-0.7v-10l-1.5-2.4v-0.4l5.5-1.8h0.8l-0.1,3.2h0.1c1.1-2,3.3-3.2,5.6-3.2c2.7,0,4.7,1.9,4.7,5.6v8.9
	L166.432,37.907z"/>
<path fill="#D73F09" d="M181.132,34.607c0-2-1-2.9-3.4-3.9l-2.6-1.1c-2.7-0.9-4.5-3.5-4.3-6.3c0-4.4,3.4-6.2,6.9-6.2
	c1.6,0,3.1,0.3,4.6,0.8l1.8-0.8l0.3,6.1l-1,0.2l-1.8-2.3c-0.8-1.5-2.4-2.4-4.1-2.3c-1.5-0.1-2.8,1-2.9,2.5c0,0.1,0,0.2,0,0.3
	c0,1.7,0.8,2.7,3,3.5l2.7,1.1c3.4,1.4,4.9,3.3,4.9,6.7c0,4.4-3.3,6.5-7.2,6.5c-1.7,0-3.5-0.4-5-1.2l-2,1.2l-0.6-6.9l1.1-0.2l1.8,2.6
	c1.2,1.9,2.6,2.8,4.6,2.8c1.5,0.1,2.9-1,3.1-2.5C181.132,35.007,181.132,34.807,181.132,34.607z"/>
<path fill="#D73F09" d="M185.632,23.807l5.8-5h1.1v4.3h4.8l-0.3,1.9h-4.5v8.6c0,2.1,0.8,2.9,2.3,2.9c1,0,1.9-0.3,2.7-0.8l0.4,0.9
	c-1.2,1.8-3.2,2.8-5.3,2.7c-2.9,0-4.8-1.4-4.8-5.2v-9.2h-2.2V23.807z"/>
<path fill="#D73F09" d="M211.732,35.507c0,1.6,0.6,2,2.3,1.8l0.1,0.7c-1,0.9-2.4,1.4-3.8,1.3c-1.6,0-2.9-0.7-3.2-2.3h-0.1
	c-0.8,1.6-2.4,2.4-4.4,2.4c-2.4,0-4.5-1.3-4.5-4.4c0-3.2,2.6-4.8,6.6-4.8c0.7,0,1.5,0.1,2.2,0.3v-1.4c0-2.1-1.4-3.2-3.5-3.2
	c-1.5,0-3,0.4-4.4,1.1l-0.4-1.1c1.7-2.2,4.3-3.4,7.1-3.2c3,0,6,1.4,6,5.8V35.507z M206.132,31.907c-2.2,0-3.4,0.5-3.4,2.5
	c-0.1,1.1,0.6,2.1,1.7,2.3c0.1,0,0.2,0,0.4,0c0.8,0,1.5-0.2,2.1-0.8v-4H206.132z"/>
<path fill="#D73F09" d="M212.432,23.807l5.8-5h1.1v4.3h4.8l-0.3,1.9h-4.5v8.6c0,2.1,0.8,2.9,2.3,2.9c1,0,1.9-0.3,2.7-0.8l0.4,0.9
	c-1.2,1.8-3.2,2.8-5.3,2.7c-2.9,0-4.8-1.4-4.8-5.2v-9.2h-2.2V23.807z"/>
<path fill="#D73F09" d="M233.732,36.307c1.4,0,2.9-0.5,3.9-1.4l0.7,0.8c-1.2,2.6-3.4,3.7-6.5,3.7c-4.2,0-7.4-2.7-7.4-8.1
	s3.7-8.5,8.1-8.5c3.6,0,6.1,2.1,6.1,5.9c0,0.7-0.1,1.4-0.2,2.1h-9.4C229.132,34.007,230.632,36.307,233.732,36.307z M229.132,29.007
	h5.1c0.1-0.4,0.1-0.9,0.1-1.4c0-1.7-0.5-3.2-2.2-3.2S229.432,25.907,229.132,29.007z"/>
<path d="M83.732,60.607c0,5.3-3.5,8-8.2,8c-4.9,0-8.3-2-8.3-7.6v-12.2l-2.7-0.8l0.3-1.2h8.2l0.3,1.2l-2.7,0.8v11.7
	c0,4.2,1.8,6.1,5.3,6.1s5.7-1.9,5.7-6.4v-11.4l-2.8-0.8l0.3-1.2h7l0.3,1.2l-2.7,0.8V60.607z"/>
<path d="M102.832,67.207l-0.4,1.1h-7v-1l1.7-0.6v-9c0-2.3-1.5-2.8-2.7-2.8c-1.4,0-2.7,0.5-3.8,1.4v10.2l2.6,0.7l-0.5,1.1h-7v-1
	l1.7-0.6v-10.6l-1.8-2v-0.4l4.4-1.7h0.6l-0.1,3.1h0.2c1.1-1.9,3.1-3.1,5.3-3.1c2.1,0,4.3,1.3,4.3,5v9.5L102.832,67.207z"/>
<path d="M110.732,67.207l-0.5,1.1h-7v-1l1.7-0.6v-10.6l-1.8-2v-0.4l4.4-1.7h0.6v14.6L110.732,67.207z M106.532,44.907
	c1.2,0,2.3,1,2.3,2.3c0,1.2-1,2.3-2.3,2.3c-1.2,0-2.3-1-2.3-2.3C104.232,46.007,105.232,45.007,106.532,44.907z"/>
<path d="M121.832,54.207l-2.4-0.8l0.2-1.1h5.9l0.2,1.1l-1.7,0.7l-5.5,14.2h-1.8l-5.8-14l-1.6-1l0.3-1h6.7l0.3,1.1l-2.3,0.6l2.6,6.4
	c0.6,1.4,1,2.9,1.3,4.4h0.2c0.3-1.5,0.8-3,1.3-4.5L121.832,54.207z"/>
<path d="M132.632,66.307c1.6,0,3.2-0.5,4.5-1.5l0.5,0.8c-1.3,2-3.6,3.2-6,3c-3.9,0-7-2.7-7-8.2s3.4-8.5,7.5-8.5c3.3,0,5.7,2,5.7,5.7
	c0,0.6-0.1,1.3-0.2,1.9h-9.9C127.732,63.807,129.632,66.307,132.632,66.307z M127.832,58.107h6.7c0-0.3,0-0.7,0-1
	c0-2.3-0.9-3.5-2.8-3.5C129.832,53.607,128.332,55.007,127.832,58.107z"/>
<path d="M146.632,67.207l-0.5,1.1h-7.7v-1l1.7-0.6v-10.6l-1.8-2v-0.4l4.4-1.7h0.6l-0.1,3.8h0.1c0.9-2,2.6-3.8,4.6-3.8
	c1.7,0,2.7,1,2.7,2.4c0.1,1.1-0.7,2.1-1.9,2.2c-0.1,0-0.2,0-0.2,0c-1.1,0.1-2-0.8-2.1-1.9c0-0.1,0-0.2,0-0.3c-1.3,0.7-2.4,1.7-3.1,3
	v9.3L146.632,67.207z"/>
<path d="M151.632,63.107c1.5,3.3,3,4.1,4.9,4.1c1.6,0,2.7-0.6,2.7-2.3c0-1.4-0.8-2.2-2.6-2.8l-2.1-0.7c-2.2-0.8-3.6-2.1-3.6-4.8
	c0-3.1,2.3-4.6,5.3-4.6c1,0,2,0.3,2.9,0.7l1.8-0.6l0.3,4.7l-0.8,0.3c-1.6-2.7-2.9-3.5-4.4-3.5c-1.2-0.2-2.3,0.7-2.5,1.9
	c0,0.1,0,0.2,0,0.3c0,1.3,0.7,2.2,2.4,2.8l2.1,0.7c2.4,0.8,3.9,2.1,3.9,4.9c0,3.2-2.4,4.6-5.7,4.6c-1.3,0-2.5-0.3-3.6-0.8l-1.6,0.8
	l-0.3-5.3L151.632,63.107z"/>
<path d="M170.332,67.207l-0.5,1.1h-7v-1l1.7-0.6v-10.6l-1.8-2v-0.4l4.4-1.7h0.6v14.6L170.332,67.207z M166.132,44.907
	c1.2,0,2.3,1,2.2,2.3c0,1.2-1,2.3-2.3,2.2c-1.2,0-2.2-1-2.2-2.2C163.832,46.007,164.832,45.007,166.132,44.907
	C166.032,44.907,166.032,44.907,166.132,44.907z"/>
<path d="M169.232,53.107l4.6-5h0.7v4.3h5.3l-0.3,1.7h-5.1v9.5c0,2,0.9,2.9,2.4,2.9c1,0,2.1-0.3,3-0.8l0.4,0.9c-1.3,1.4-3.1,2.1-5,2
	c-2.4,0-4-1.3-4-4.5v-10h-2.1L169.232,53.107z"/>
<path d="M179.832,54.307l-1.6-1l0.3-1h6.8l0.3,1.1l-2.3,0.6l2.6,6.9c0.6,1.5,1,3.1,1.2,4.6h0.1c0,0,0.6-2.3,1.4-4.7l2.2-6.7
	l-2.4-0.8l0.2-1.1h5.8l0.2,1.1l-1.7,0.7l-5.1,14c-2.3,6.2-4.2,8.2-7.2,8.2c-1.9,0-2.9-1.1-2.9-2.5c-0.1-1.1,0.8-2.1,1.9-2.1
	c0.1,0,0.1,0,0.2,0c1,0,1.8,0.7,1.9,1.7c0,0.1,0,0.1,0,0.2c0,0.4-0.1,0.9-0.4,1.2c1.5,0,3.4-2.7,4.4-5.8L179.832,54.307z"/>
</svg>
